<svg xmlns="http://www.w3.org/2000/svg" width="251" height="65" viewBox="0 0 251 65">
  <g id="Group_94" data-name="Group 94" transform="translate(-117 -70)">
    <text id="TurboTail" transform="translate(274 119)" fill="#141414" font-size="42" font-family="Knewave-Regular, Knewave"><tspan x="-88.452" y="0">TurboTail</tspan></text>
    <g id="dog_1_" data-name="dog (1)" transform="translate(117 69.771)">
      <path id="Path_127" data-name="Path 127" d="M56.441,10.913a1.785,1.785,0,0,0-1.669-2.418h-4.55A8.153,8.153,0,0,0,36.9,2.191a5.138,5.138,0,0,1,2.928,2.332C44,11.761,44,13.946,44,14.878a8.609,8.609,0,0,1-12.927,7.454l-17.5,7.849A14.81,14.81,0,0,0,4.833,43.549c-1.278-2.457-1.891-6.474.724-12.74a1.867,1.867,0,0,0-3.446-1.438c-3.378,8.093-2.081,13.318-.4,16.275A12.015,12.015,0,0,0,5.186,49.51a9.85,9.85,0,0,0,9.477,7.218H28.356a2.489,2.489,0,1,0,0-4.979H23.21A9.417,9.417,0,0,0,24.526,46.6a8.054,8.054,0,0,0-3.269-6.7A1.867,1.867,0,1,1,23.491,36.9a11.9,11.9,0,0,1,4.666,8.048l6.422-2.914V54.238a2.49,2.49,0,0,0,2.489,2.489h5a2.489,2.489,0,0,0,0-4.979h-2.51V39.456a11.644,11.644,0,0,0,4.605-9.275V22.8a3.806,3.806,0,0,1,3.806-3.806H50.1a4.743,4.743,0,0,0,4.434-3.06ZM44.6,9.18a1.058,1.058,0,1,1,1.058-1.058A1.058,1.058,0,0,1,44.6,9.18Z" transform="translate(0 0)" fill="#f6ae2e"/>
      <path id="Path_128" data-name="Path 128" d="M127.426,35.9a4.881,4.881,0,0,0,4.881-4.881c0-1.823-2.232-5.984-3.677-8.489a1.389,1.389,0,0,0-2.408,0c-1.446,2.5-3.678,6.667-3.678,8.49A4.881,4.881,0,0,0,127.426,35.9Z" transform="translate(-92.038 -16.143)" fill="#f6ae2e"/>
    </g>
  </g>
</svg>
